<?xml version="1.0" encoding="utf-8"?>
<!-- Generator: Adobe Illustrator 19.1.1, SVG Export Plug-In . SVG Version: 6.00 Build 0)  -->
<svg version="1.1" id="Слой_1" xmlns="http://www.w3.org/2000/svg" xmlns:xlink="http://www.w3.org/1999/xlink" x="0px" y="0px"
	 viewBox="0 0 150 56.3" style="enable-background:new 0 0 150 56.3;" xml:space="preserve">
<style type="text/css">
	.st0{fill:#72CE9B;}
	.st1{fill:#0F5BDF;}
	.st2{fill:url(#SVGID_1_);}
	.st3{fill:url(#SVGID_2_);}
	.st4{fill:#FFFFFF;}
</style>
<g>
	<polygon class="st0" points="96.5,9.8 96.5,0.8 0.3,0.8 0.3,46.3 53.5,46.3 53.5,9.8 	"/>
	<polygon class="st1" points="96.5,9.8 96.5,46.3 53.5,46.3 53.5,55.3 149.7,55.3 149.7,9.8 	"/>
	<linearGradient id="SVGID_1_" gradientUnits="userSpaceOnUse" x1="44.3101" y1="28.0704" x2="133.0891" y2="28.0704">
		<stop  offset="0" style="stop-color:#72CE9B"/>
		<stop  offset="1" style="stop-color:#72CE9B;stop-opacity:0"/>
	</linearGradient>
	<rect x="53.5" y="9.8" class="st2" width="43" height="36.5"/>
	<linearGradient id="SVGID_2_" gradientUnits="userSpaceOnUse" x1="52.273" y1="45.2314" x2="96.3565" y2="11.9442">
		<stop  offset="0" style="stop-color:#0F5BDF;stop-opacity:0"/>
		<stop  offset="0.8323" style="stop-color:#0F5BDF"/>
	</linearGradient>
	<rect x="53.5" y="9.8" class="st3" width="43" height="36.5"/>
	<g>
		<path class="st4" d="M30.9,22c-0.8-0.4-1.7-0.6-2.6-0.6h-9.2c-1.4,0-2.5,0.5-3.5,1.5c-1,1-1.5,2.1-1.5,3.5v3.9
			c0,1.4,0.5,2.5,1.5,3.5c1,1,2.1,1.5,3.5,1.5h9.2c1.6,0,3-0.6,4.1-1.7c1.1-1.1,1.7-2.5,1.7-4.1V15.7h-3.2V22z M17.4,26.3
			c0-0.5,0.2-0.9,0.5-1.2c0.3-0.3,0.7-0.5,1.2-0.5h9.2c0.7,0,1.3,0.2,1.8,0.8c0.5,0.5,0.8,1.1,0.8,1.8v2.3c0,0.7-0.2,1.3-0.8,1.8
			c-0.5,0.5-1.1,0.8-1.8,0.8h-9.2c-0.5,0-0.9-0.2-1.2-0.5c-0.3-0.3-0.5-0.7-0.5-1.2V26.3z"/>
		<rect x="44.5" y="15.6" class="st4" width="3.2" height="3.2"/>
		<rect x="44.5" y="21.4" class="st4" width="3.2" height="13.8"/>
		<path class="st4" d="M72.3,21.4h-9.2c-1.4,0-2.5,0.5-3.5,1.5c-1,1-1.5,2.1-1.5,3.5v3.9c0,1.4,0.5,2.5,1.5,3.5c1,1,2.1,1.5,3.5,1.5
			h9.2c0.9,0,1.8-0.2,2.6-0.6V36c0,0.5-0.2,0.9-0.5,1.2c-0.4,0.4-0.8,0.5-1.2,0.5h-14v3.2h14c1.4,0,2.5-0.5,3.5-1.4
			c1-1,1.5-2.1,1.5-3.5v-8.8c0-1.6-0.6-3-1.7-4.1C75.3,21.9,73.9,21.4,72.3,21.4z M61.3,26.3c0-0.5,0.2-0.9,0.5-1.2
			c0.3-0.3,0.7-0.5,1.2-0.5h9.2c0.7,0,1.3,0.2,1.8,0.8c0.5,0.5,0.8,1.1,0.8,1.8v2.3c0,0.7-0.2,1.3-0.8,1.8C73.6,31.7,73,32,72.3,32
			h-9.2c-0.5,0-0.9-0.2-1.2-0.5c-0.3-0.3-0.5-0.7-0.5-1.2V26.3z"/>
		<rect x="88.5" y="15.6" class="st4" width="3.2" height="3.2"/>
		<rect x="88.5" y="21.4" class="st4" width="3.2" height="13.8"/>
		<path class="st4" d="M105.3,20.6c0-0.5,0.2-0.9,0.5-1.2c0.4-0.4,0.8-0.5,1.2-0.5h4.8v-3.2H107c-1.4,0-2.5,0.5-3.5,1.5
			c-1,1-1.5,2.1-1.5,3.5v14.6h3.2V24.6h6.6v-3.2h-6.6V20.6z"/>
		<path class="st4" d="M132.1,24.6v-3.2h-4.5v-5.7h-3.2v5.7h-2.2v3.2h2.2v5.7c0,1.4,0.5,2.5,1.5,3.5c1,1,2.1,1.5,3.5,1.5h2.7V32
			h-2.7c-0.5,0-0.9-0.2-1.2-0.5c-0.3-0.3-0.5-0.7-0.5-1.2v-5.7H132.1z"/>
	</g>
</g>
</svg>
